<svg width="150" height="56" viewBox="0 0 150 56" fill="none" xmlns="http://www.w3.org/2000/svg">
<rect width="150" height="56" fill="white"/>
<g clip-path="url(#clip0_2_5)">
<path d="M43.05 19.112L36.024 15.056L29 19.112V15.056L36.025 11L43.051 15.056L43.05 19.112Z" fill="#A435F0"/>
<path d="M29 22.518H32.68V31.459C32.68 33.769 34.405 34.895 36.025 34.895C37.659 34.895 39.371 33.739 39.371 31.428V22.518H43.051V31.672C43.051 33.8 42.382 35.442 41.044 36.568C39.705 37.693 38.033 38.241 35.994 38.241C33.957 38.241 32.284 37.694 30.977 36.568C29.669 35.443 29 33.862 29 31.763V22.518ZM74.866 33.63C73.752 34.622 72.483 35.108 71.036 35.108C68.396 35.108 66.626 33.604 66.426 31.275H78.316C78.316 31.275 78.396 30.523 78.396 29.817C78.396 27.627 77.696 25.802 76.266 24.312C74.868 22.822 73.044 22.092 70.823 22.092C68.482 22.092 66.565 22.822 65.044 24.312C63.554 25.802 62.794 27.748 62.794 30.182V30.302C62.794 32.705 63.554 34.621 65.044 36.051C66.534 37.48 68.511 38.21 70.914 38.21C73.708 38.21 75.931 37.108 77.599 35.208L74.866 33.63ZM67.872 26.167C68.692 25.528 69.697 25.194 70.822 25.194C71.886 25.194 72.768 25.528 73.529 26.198C74.255 26.808 74.647 27.557 74.681 28.418H66.52C66.638 27.528 67.088 26.778 67.873 26.168L67.872 26.167ZM111.91 40.276C110.417 43.801 108.855 45 106.46 45H104.8V41.738H106.142C106.966 41.738 107.732 41.428 108.462 39.744L109.192 38.058L102.896 22.518H106.637L111.108 33.71L115.701 22.518H119.441L111.91 40.276ZM57.377 16.649V23.906C56.171 22.826 54.295 22.183 52.481 22.183C50.321 22.183 48.497 22.943 47.007 24.493C45.547 26.014 44.817 27.899 44.817 30.18C44.817 32.462 45.547 34.347 47.007 35.898C48.497 37.419 50.322 38.18 52.481 38.18C54.971 38.18 56.545 37.201 57.377 36.434V37.845H61.027V16.65L57.377 16.649ZM56.282 33.527C55.4 34.409 54.275 34.866 52.967 34.866C51.659 34.866 50.595 34.409 49.713 33.527C48.863 32.645 48.436 31.52 48.436 30.182C48.436 28.843 48.862 27.718 49.713 26.836C50.595 25.954 51.659 25.498 52.967 25.498C54.275 25.498 55.4 25.954 56.282 26.836C57.194 27.718 57.652 28.843 57.652 30.182C57.652 31.52 57.194 32.645 56.282 33.527ZM97.222 22.214C94.45 22.214 93.009 23.364 92.022 24.472C91.627 23.719 90.515 22.214 87.917 22.214C85.721 22.214 84.427 23.324 83.781 24.114V22.52H80.163V37.847H83.781V29.027C83.781 26.959 85.059 25.469 86.761 25.469C88.496 25.469 89.499 26.777 89.499 28.875V37.846H93.118V29.026C93.118 26.928 94.364 25.468 96.158 25.468C97.892 25.468 98.895 26.776 98.895 28.873V37.845H102.545V28.357C102.545 24.361 100.397 22.215 97.222 22.215V22.214Z" fill="black"/>
</g>
<defs>
<clipPath id="clip0_2_5">
<rect width="91" height="34" fill="white" transform="translate(29 11)"/>
</clipPath>
</defs>
</svg>
